/* XPM */
static char *RB[] = {
/* columns rows colors chars-per-pixel */
"64 64 32 1 ",
"  c None",
". c black",
"X c #010001",
"o c #020002",
"O c #040004",
"+ c #050005",
"@ c #060006",
"# c #070007",
"$ c #090009",
"% c #0A000A",
"& c #100010",
"* c #140014",
"= c #150015",
"- c #170017",
"; c #1F001F",
": c #240024",
"> c #280028",
", c #340034",
"< c #350035",
"1 c #430043",
"2 c #440044",
"3 c #510051",
"4 c #550055",
"5 c #570057",
"6 c #610061",
"7 c #690069",
"8 c #6E006E",
"9 c #730073",
"0 c #750075",
"q c #7A007A",
"w c #7B007B",
"e c #800080",
/* pixels */
"                                                                ",
"                                                                ",
"                                                                ",
"                  ...............................               ",
"               ..<eeeeeeeeeeeeeeeeeeeeeeeeeeeeeee9...           ",
"             .$eeeeeeeeeeeeeeeeeeeeeeeeeeeeeeeeeeeeee..         ",
"           ..eeeeeeeeeeeeeeeeeeeeeeeeeeeeeeeeeeeeeeeeee.        ",
"          .;eeeeeeeeeeeeeeeeeeeeeeeeeeeeeeeeeeeeeeeeeeee.       ",
"         .-eeeeeeeeeeeeeeeeeeeeeeeeeeeeeeeeeeeeeeeeeeeeee.      ",
"         .eeeeeeeeeeeeeeeeeeeeeeeeeeeeeeeeeeeeeeeeeeeeeeee.     ",
"        .eeeeeeeeeeeeeeeeeeeeeeeeeeeeeeeeeeeeeeeeeeeeeeeee.     ",
"        .eeeeeeeeeeeeeeeeeeeeeeeeeeeeeeeeeeeeeeeeeeeeeeeeee.    ",
"       .eeeeeeeeeeeeee......eeeeeeeeee.......:eeeeeeeeeeeee.    ",
"       .eeeeeeeeeeee.O     .eeeeeeeeee.       ..eeeeeeeeeee.    ",
"       $eeeeeeeeeee.       .eeeeeeeeee.        .&eeeeeeeeee.    ",
"      .eeeeeeeeeee.        .eeeeeeeeee.         .eeeeeeeeee<    ",
"      .eeeeeeeeeeq.        .eeeeeeeeee.         Oeeeeeeeeeee    ",
"      .eeeeeeeeee.         .eeeeeeeeee.          .eeeeeeeeeeO   ",
"      .eeeeeeeeee.         .eeeeeeeeee.          .eeeeeeeeeeO   ",
"      .eeeeeeeeee.         .eeeeeeeeee.          .eeeeeeeeee    ",
"      .eeeeeeeeee.         .eeeeeeeeee.          .eeeeeeeee-    ",
"      .eeeeeeeeee.         .eeeeeeeeee.          >eeeeeeeee.    ",
"      .eeeeeeeeee.         .eeeeeeeeee.         .eeeeeeeeee.    ",
"      .eeeeeeeeee.         .eeeeeeeeee.         .eeeeeeeeee.    ",
"      .eeeeeeeeeeO         .eeeeeeeeee.        .3eeeeeeeee.     ",
"       eeeeeeeeeee.        .eeeeeeeeee.       .Oeeeeeeeeee.     ",
"       .eeeeeeeeee.        .eeeeeeeeee.......<eeeeeeeeeee.      ",
"       .eeeeeeeeeee.       .eeeeeeeeeeeeeeeeeeeeeeeeeeee.       ",
"       .eeeeeeeeeeee..O    .eeeeeeeeeeeeeeeeeeeeeeeeeee.O       ",
"        .eeeeeeeeeeeeee-...4eeeeeeeeeeeeeeeeeeeeeeeee..         ",
"        .8eeeeeeeeeeeeeeeeeeeeeeeeeeeeeeeeeeeeeeeeee.           ",
"         .eeeeeeeeeeeeeeeeeeeeeeeeeeeeeeeeeeeeeeeeeee..         ",
"          .eeeeeeeeeeeeeeeeeeeeeeeeeeeeeeeeeeeeeeeeeeee;.       ",
"           .eeeeeeeeeeeeeeeeeeeeeeeeeeeeeeeeeeeeeeeeeeeee.      ",
"            .eeeeeeeeeeeeeeeeeeeeeeeeeeeeeeeeeeeeeeeeeeeee.     ",
"             .eeeeeeeeeeeeeeeeeeeeeeee.........eeeeeeeeeeee.    ",
"             .eeeeeeeeeeeeeeeeeeeeeeee.        .8eeeeeeeeee.    ",
"             $eeeeeeeeeeeeeeeeeeeeeeee.         .eeeeeeeeeee.   ",
"            .eeeeeeeeee.....eeeeeeeeee.          .eeeeeeeeee.   ",
"            .eeeeeeeeeq.   .eeeeeeeeee.          .eeeeeeeeee.   ",
"           .eeeeeeeeee.    .eeeeeeeeee.           eeeeeeeeee4   ",
"           .eeeeeeeeee.    .eeeeeeeeee.           .eeeeeeeeee.  ",
"          .eeeeeeeeee.     .eeeeeeeeee.           .eeeeeeeeee.  ",
"          .eeeeeeeeee.     .eeeeeeeeee.           .eeeeeeeeee.  ",
"         .7eeeeeeeee2O     .eeeeeeeeee.           .eeeeeeeeee.  ",
"         .eeeeeeeeee.      .eeeeeeeeee.           6eeeeeeeeee.  ",
"         -eeeeeeeeee.      .eeeeeeeeee.          .eeeeeeeeeeeO  ",
"        .eeeeeeeeee.       .eeeeeeeeee.          .eeeeeeeeeee   ",
"        .eeeeeeeeee.       .eeeeeeeeee.         O.eeeeeeeeee.   ",
"       .eeeeeeeeee&        .eeeeeeeeee.         .eeeeeeeeeee.   ",
"       .eeeeeeeeee.        .eeeeeeeeee.       ..eeeeeeeeeeee.   ",
"      .eeeeeeeeeee.        .eeeeeeeeee.......&eeeeeeeeeeeee<    ",
"      .eeeeeeeeee.         .eeeeeeeeeeeeeeeeeeeeeeeeeeeeeee.    ",
"     .qeeeeeeeeee.         .eeeeeeeeeeeeeeeeeeeeeeeeeeeeee1.    ",
"     .eeeeeeeeee.          .eeeeeeeeeeeeeeeeeeeeeeeeeeeeee.     ",
"     ;eeeeeeeeee.          .eeeeeeeeeeeeeeeeeeeeeeeeeeeee.      ",
"    .eeeeeeeeee9.          .eeeeeeeeeeeeeeeeeeeeeeeeeeee.       ",
"    .eeeeeeeeee.           .eeeeeeeeeeeeeeeeeeeeeeeeeee.        ",
"   .eeeeeeeeeee.           .eeeeeeeeeeeeeeeeeeeeeeeee..         ",
"   .eeeeeeeeee.            .eeeeeeeeeeeeeeeeeeeeee0..           ",
"  $............            .......................              ",
"                                                                ",
"                                                                ",
"                                                                "
};
